:SAMPLES-PER-SECOND 30
:FULLY-SPECIFIED
:DEGREES
33
root  69.7369 39.0771 -7.79417 36.2841 -88.6143 -41.4347
RightUpLeg  2.99006 -13.5731 -2.76333
RightLeg  20.4768 -1.09108 1.51268
RightFoot  -18.0772 -0.108124 0.241219
RightToes  2.91037e-010 0 -3.6325e-017
Spine  7.4291 -2.72985 2.57025
Spine1  10.4495 -3.76831 6.79603
HEad  1.13157 8.05155 -9.23217
LeftShoulder1  5.28471 -7.52065 -41.5372
LeftArm  -20.5123 27.2275 -39.4333
LeftForeArm  25.2531 -15.6009 -2.83964
LeftHand  -0.244104 0.0205437 5.32207
RightShoulder  4.20608 6.8886 34.5184
RightArm  -12.0554 -29.2364 48.4383
RightForeArm  43.6022 13.2966 4.52332
RightHand  1.435 0.588934 27.7898
LeftUpLeg  -10.7794 8.65412 10.9662
LeftLeg  42.5905 13.8758 13.5984
LeftFoot  -0.676523 0.283674 -2.96852
LeftToes  1.46425e-010 1.43544e-010 6.23391e-011
34
root  69.2095 39.0628 -8.00509 41.2769 -89.4813 -46.7079
RightUpLeg  4.31379 -13.2378 -3.46691
RightLeg  20.2624 -0.916398 1.77537
RightFoot  -18.8336 -0.135781 -0.129196
RightToes  2.91037e-010 0 -3.6325e-017
Spine  7.02704 -2.14682 4.01582
Spine1  12.0263 -2.67672 5.14642
HEad  0.980276 6.68657 -9.1848
LeftShoulder1  6.03918 -8.71196 -42.9524
LeftArm  -16.8406 27.9964 -39.7262
LeftForeArm  27.8524 -13.4019 -3.5699
LeftHand  -0.244104 0.0205437 5.32207
RightShoulder  4.72277 7.66752 36.2899
RightArm  -7.94849 -29.5341 47.4415
RightForeArm  35.2672 13.8179 5.34239
RightHand  0.804799 -0.841477 20.4535
LeftUpLeg  -13.9537 8.80892 8.27326
LeftLeg  45.4267 9.06047 10.1321
LeftFoot  -1.17719 0.333057 -3.67664
LeftToes  1.46425e-010 1.43544e-010 6.23391e-011
35
root  68.6382 39.0575 -8.18103 -109.638 -89.42 104.175
RightUpLeg  5.52207 -12.9576 -4.45065
RightLeg  19.8636 -0.468266 2.16908
RightFoot  -19.5954 -0.145817 -0.18543
RightToes  2.91037e-010 0 -3.6325e-017
Spine  6.66538 -1.47338 5.3316
Spine1  12.9603 -1.42792 3.31269
HEad  1.24504 5.11876 -9.17633
LeftShoulder1  6.71525 -9.79258 -43.9466
LeftArm  -14.7362 28.9285 -39.6604
LeftForeArm  31.424 -11.3253 -4.209
LeftHand  -0.244104 0.0205437 5.32207
RightShoulder  5.07859 8.18533 37.4267
RightArm  -4.76955 -29.2455 46.0608
RightForeArm  28.5311 13.3911 6.13241
RightHand  0.216885 -3.13318 12.4106
LeftUpLeg  -16.6458 9.69676 5.08188
LeftLeg  45.6375 6.52299 7.50819
LeftFoot  -1.84369 0.439939 -5.15857
LeftToes  1.46425e-010 1.43544e-010 6.23391e-011
36
root  68.0407 39.0869 -8.35364 -129.693 -88.3452 124.294
RightUpLeg  6.89524 -12.6502 -5.49456
RightLeg  18.9158 0.0675719 2.5813
RightFoot  -20.025 -0.140287 -0.0623449
RightToes  2.91037e-010 0 -3.6325e-017
Spine  6.6968 -0.791577 6.31721
Spine1  13.0728 -0.225289 1.44995
HEad  1.76446 4.15104 -9.16259
LeftShoulder1  7.25023 -10.6709 -44.5428
LeftArm  -13.9345 30.1215 -39.4496
LeftForeArm  33.3693 -9.46156 -4.49321
LeftHand  -0.244104 0.0205437 5.32207
RightShoulder  5.26913 8.50489 37.8408
RightArm  -2.89962 -28.5956 44.4542
RightForeArm  27.0548 12.412 6.6714
RightHand  -0.0195365 -5.1625 6.35622
LeftUpLeg  -18.5962 11.1448 1.71004
LeftLeg  43.0095 6.91916 7.22518
LeftFoot  -2.48199 0.44105 -5.49326
LeftToes  1.46425e-010 1.43544e-010 6.23391e-011
37
root  67.4175 39.1391 -8.52579 -131.325 -87.3133 125.986
RightUpLeg  8.49897 -12.1681 -6.39468
RightLeg  17.507 0.461788 2.859
RightFoot  -20.1132 -0.136373 -0.00253301
RightToes  2.91037e-010 0 -3.6325e-017
Spine  7.11401 -0.200122 6.98658
Spine1  12.7131 0.787198 -0.256248
HEad  2.08917 4.04697 -8.99436
LeftShoulder1  7.61711 -11.2611 -44.9463
LeftArm  -13.4914 31.3516 -38.9529
LeftForeArm  33.1404 -8.01322 -4.55147
LeftHand  -0.244104 0.0205437 5.32207
RightShoulder  5.34768 8.70473 37.7676
RightArm  -1.96388 -27.465 42.4988
RightForeArm  30.4954 11.2325 6.88012
RightHand  -0.0945378 -6.63473 4.217
LeftUpLeg  -19.7018 12.944 -1.58684
LeftLeg  37.6427 8.46232 7.29635
LeftFoot  -2.78239 0.405503 -5.19605
LeftToes  1.46425e-010 1.43544e-010 6.23391e-011
38
root  66.7505 39.1423 -8.69401 -132.842 -86.4954 127.632
RightUpLeg  10.0579 -11.6502 -7.0524
RightLeg  16.2278 0.687671 3.0192
RightFoot  -20.4236 -0.120758 0.216619
RightToes  2.91037e-010 0 -3.6325e-017
Spine  7.55873 0.251646 7.40346
Spine1  12.3874 1.54822 -1.55584
HEad  2.05683 4.10962 -8.877
LeftShoulder1  7.878 -11.647 -45.3178
LeftArm  -12.9215 32.3411 -37.9936
LeftForeArm  32.2473 -7.39359 -4.62288
LeftHand  -0.244104 0.0205437 5.32207
RightShoulder  5.37471 8.78559 37.7017
RightArm  -2.463 -25.3555 39.7765
RightForeArm  35.8305 10.034 6.7044
RightHand  -0.123478 -6.63533 7.65108
LeftUpLeg  -20.2368 15.0871 -4.72421
LeftLeg  30.259 8.97721 5.97831
LeftFoot  -2.32995 0.434029 -5.32599
LeftToes  1.46425e-010 1.43544e-010 6.23391e-011
39
root  66.0274 39.0793 -8.86368 -134.084 -85.9723 129.118
RightUpLeg  11.5393 -11.2755 -7.4829
RightLeg  15.1297 0.925867 3.22204
RightFoot  -21.0697 -0.0714729 0.834397
RightToes  2.91037e-010 0 -3.6325e-017
Spine  7.65754 0.58177 7.58963
Spine1  12.5058 2.08201 -2.45271
HEad  1.95257 3.85721 -9.15135
LeftShoulder1  8.08197 -11.9535 -45.5808
LeftArm  -12.2827 32.8682 -36.7369
LeftForeArm  32.0132 -7.64882 -4.75817
LeftHand  -0.244104 0.0205437 5.32207
RightShoulder  5.40907 8.82483 37.836
RightArm  -4.47317 -22.1872 36.5532
RightForeArm  31.6138 8.3706 6.56057
RightHand  -0.0870601 -6.49122 4.13052
LeftUpLeg  -20.4212 18.0854 -7.90532
LeftLeg  21.7554 7.03793 3.67858
LeftFoot  -1.6585 0.475358 -5.49461
LeftToes  1.46425e-010 1.43544e-010 6.23391e-011
40
root  65.2416 38.9913 -9.03506 -136.686 -85.5965 132.032
RightUpLeg  13.0471 -11.0007 -7.73977
RightLeg  14.0161 1.29879 3.4609
RightFoot  -21.5641 -0.0241606 1.36499
RightToes  2.91037e-010 0 -3.6325e-017
Spine  7.34538 0.804493 7.55244
Spine1  13.0982 2.46628 -3.128
HEad  2.07854 3.78721 -9.76035
LeftShoulder1  8.17813 -12.1381 -45.5794
LeftArm  -11.6931 32.8156 -35.5221
LeftForeArm  32.3632 -8.16416 -4.87988
LeftHand  -0.244104 0.0205437 5.32207
RightShoulder  5.48888 8.99369 37.8812
RightArm  -6.96869 -18.6136 33.5988
RightForeArm  22.2783 6.99564 6.33122
RightHand  -0.0204043 -5.79721 -2.56564
LeftUpLeg  -19.7861 17.6391 -9.23095
LeftLeg  12.7387 7.85421 0.48478
LeftFoot  -1.30653 0.460436 -5.1558
LeftToes  1.46425e-010 1.43544e-010 6.23391e-011
41
root  64.3717 38.879 -9.20483 -141.299 -85.2191 137.019
RightUpLeg  14.5017 -10.7978 -7.85485
RightLeg  13.1247 1.77084 3.60948
RightFoot  -21.8128 -0.0234007 1.35851
RightToes  2.91037e-010 0 -3.6325e-017
Spine  6.84971 0.933466 7.2598
Spine1  13.6726 2.69747 -3.53382
HEad  2.33104 4.45661 -10.2398
LeftShoulder1  8.12776 -12.1031 -45.3933
LeftArm  -11.1419 32.2302 -34.3823
LeftForeArm  32.6563 -8.41281 -4.97314
LeftHand  -0.244104 0.0205437 5.32207
RightShoulder  5.54575 9.23232 37.5185
RightArm  -9.39752 -15.1677 31.3635
RightForeArm  12.8617 6.77665 6.22686
RightHand  -0.0950654 -4.11672 -7.18888
LeftUpLeg  -17.6517 4.46412 -4.75202
LeftLeg  3.491 22.8529 -5.35494
LeftFoot  -0.856163 0.42296 -4.55316
LeftToes  1.46425e-010 1.43544e-010 6.23391e-011
42
root  63.3994 38.6995 -9.37936 -145.71 -84.9883 141.886
RightUpLeg  15.8204 -10.7989 -7.90589
RightLeg  12.7978 2.31193 3.75255
RightFoot  -22.2624 -0.0120555 1.44651
RightToes  2.91037e-010 0 -3.6325e-017
Spine  6.46616 0.971175 6.68313
Spine1  13.7269 2.69878 -3.56857
HEad  2.45038 5.48793 -10.2805
LeftShoulder1  8.01155 -11.9247 -45.2561
LeftArm  -10.5269 31.2008 -33.0457
LeftForeArm  32.6792 -8.56874 -5.08515
LeftHand  -0.244104 0.0205437 5.32207
RightShoulder  5.42529 9.18291 36.7596
RightArm  -11.081 -11.8346 30.0336
RightForeArm  2.76373 7.99613 6.59563
RightHand  -0.32568 -2.15787 -11.3513
LeftUpLeg  -17.3883 -0.204915 -3.65004
LeftLeg  -3.0693 30.1377 -8.85884
LeftFoot  -0.353996 0.41591 -4.30273
LeftToes  1.46425e-010 1.43544e-010 6.23391e-011
